<svg enable-background="new 0 0 513 146" viewBox="0 0 513 146" xmlns="http://www.w3.org/2000/svg"><path d="m101.4 49.9c-3-2.5-7.4-3.8-13.2-3.8h-15.4v29h15.4c5.7 0 10.1-1.3 13.2-3.8 3-2.5 4.6-6.1 4.6-10.7s-1.5-8.2-4.6-10.7z" fill="#f7cdda"/><path d="m114.8 51.3c-.4-2.4-.9-4.9-1.7-7.4-2.5-8.3-7-16.8-15-25.1-.1-.1-.1-.1-.2-.2-.8-.8-1.5-1.6-2.3-2.3-1.9-1.6-3.9-3.1-5.9-4.5-6.5-4.2-13.9-7.1-21.9-8.3-2.7-.3-5.3-.5-8-.5-2.9.1-6.6.4-9.7.9-1.1.2-2.3.4-3.4.6-4.4 1-8.5 2.6-12.4 4.6-2.5 1.3-4.9 2.7-7.2 4.4-6.8 4.8-12.4 11.1-16.4 18.5-1.4 2.6-2.7 5.3-3.7 8.2-1.7 4.9-2.8 10.1-3 15.5.1 4 .7 7.8 1.6 11.5.4 1.4.8 2.8 1.3 4.1.9 2.4 2 4.8 3.2 7 .1.2.2.3.3.5 2.4 3.4 6 6.1 8.9 8.5 4.2 3.5 3.7 3.1 6.3 7.1.3.4.5.9.7 1.4.6 1.4 1 2.8 1.1 4.3v.1c.1 1.3.1 2.5-.1 3.9-.1.9-.3 1.8-.6 2.7-1.4 6.2-4.6 11.6-9.1 15.7-.3.3-.6.6-.9.8-.3.4-.5.9-.5 1.5v.1c0 1.5 1.2 2.7 2.7 2.7h.4c.1 0 .2-.1.4-.1.2-.1.4-.1.6-.2 3.2-1.1 6.2-2.5 9-4.2 7.1-4.2 13-10.2 17.2-17.2.2-.3.4-.6.6-1 .3-.5.5-1 .8-1.4.1-.2.1-.3.2-.5.2-.6.4-1.2.6-1.7.1-.7.3-1.3.4-2 .1-.5.1-1 .2-1.6.1-1 .2-2.1.2-3.1 0-.5 0-1.1 0-1.6-.1-.6-.1-1.1-.2-1.7-.2-1.3-.6-2.6-1-4-.2.1-.4.2-.5.3-1.6 1.2-3.6 2-5.7 2.2-.4 0-.7 0-1.1 0-2.2 0-4.2-.6-6-1.7-.8-.5-1.6-1.1-2.3-1.8-1.2-1.2-2.2-2.8-2.7-4.5-1-2-1.8-4.1-2.3-6.3-.3-1.1-.5-2.2-.6-3.4-.2-1.2-.2-2.5-.2-3.8 0-1.1.1-2.1.2-3.1.2-1.9.5-3.7 1.1-5.4.2-.7.5-1.5.7-2.2 1.3-3.4 3.2-6.5 5.5-9.2 0 0 0-.1.1-.1.7 1.1 1.4 2.1 2.2 3.1 3.7 4.5 8.2 7.8 12.8 11.1.3.2.7.5 1 .7 1.1.8 2.3 1.7 3.4 2.5 0 0 .1.1.1.1 2.1 1.4 3.9 3.2 5.2 5.4 1.6 2.2 2.7 4.8 2.8 7.9.3 5.3-2 15.7-4.8 19.6-.7 1-1.5 1.9-2.3 2.7-.1.1-.3.3-.4.4-.2.2-.3.3-.5.4-.5.5-.9 1-1.3 1.6-.3.5-.6 1-.9 1.5-.1.3-.3.5-.4.8.4 0 .8.1 1.3.1h.6c1.8-.1 3.4-.6 4.9-1.3.9-.4 1.8-.9 2.7-1.6.6-.4 1.1-.9 1.6-1.5-.1.4-.2.8-.2 1.2-.2.9-.4 1.8-.7 2.6-.5 1.4-1 2.7-1.6 3.8 0 0 0 .1-.1.1-1.6 3.3-3.5 6.5-5.7 9.4-7.2 9.3-17.6 16-29.6 18.2-1.4.3-4.2 1.9-3 2.2s11.3 2.5 17.2 2.8c1 0 2.1.1 3.1.1 28.4 0 53.1-16.1 65.5-39.6 5.4-10.2 8.4-21.9 8.4-34.2-.1-1.1-.2-12.2-1-17.1zm-9 23.9c-4.2 3.5-10 5.3-17.4 5.3h-15.6v18.3h-6.1v-58h21.7c7.4 0 13.2 1.8 17.4 5.3s6.3 8.4 6.3 14.6-2.1 11-6.3 14.5z" fill="#f277a8"/><path d="m105.8 46.1c-4.2-3.5-10-5.3-17.4-5.3h-21.7v58.1h6.1v-18.4h15.6c7.4 0 13.2-1.8 17.4-5.3s6.3-8.4 6.3-14.6c0-6.1-2.1-11-6.3-14.5zm-4.4 25.2c-3 2.5-7.4 3.8-13.2 3.8h-15.4v-29h15.4c5.7 0 10.1 1.3 13.2 3.8 3 2.5 4.6 6.1 4.6 10.8 0 4.6-1.5 8.1-4.6 10.6z"/><path d="m161.5 93.5v5.3h-41.1v-58h39.8v5.3h-33.7v20.7h30v5.2h-30v21.6h35z"/><path d="m170.9 40.8h6.1v52.7h32.5v5.3h-38.6z"/><path d="m223.1 92.9c-4.2-4.3-6.3-10.6-6.3-18.8v-33.3h6.1v33c0 6.7 1.5 11.8 4.6 15.1 3 3.3 7.4 5 13.2 5s10.2-1.7 13.3-5c3-3.3 4.6-8.3 4.6-15.1v-33h6v33.2c0 8.2-2.1 14.5-6.3 18.8s-10 6.5-17.5 6.5c-7.7 0-13.5-2.1-17.7-6.4z"/><path d="m335.8 40.8v58.1h-5.9v-46.5l-22.8 39.1h-2.9l-22.8-38.8v46.2h-5.9v-58.1h5.1l25.2 43 25-43z"/><path d="m447.9 72.2c2.3-3.1 3.4-7 3.4-11.5 0-6.2-2.1-11.1-6.3-14.6s-10-5.3-17.4-5.3h-21.7v58.1h6.1v-18.5h15.6c1.6 0 3.2-.1 4.6-.2l13.3 18.7h6.7l-14.2-20c4.3-1.4 7.6-3.6 9.9-6.7zm-20.5 3h-15.4v-29.1h15.4c5.7 0 10.1 1.3 13.2 3.8 3 2.5 4.6 6.1 4.6 10.8 0 4.6-1.5 8.2-4.6 10.7-3 2.5-7.4 3.8-13.2 3.8z" fill="none"/><path d="m445.5 98.8-13.3-18.7c-1.5.2-3 .2-4.6.2h-15.6v18.4h-6.1v-57.9h21.7c7.4 0 13.2 1.8 17.4 5.3s6.3 8.4 6.3 14.6c0 4.5-1.1 8.4-3.4 11.5s-5.6 5.4-9.8 6.8l14.2 19.9h-6.8z"/><path d="m445.2 60.7c0-4.7-1.5-8.3-4.6-10.8-3-2.5-7.4-3.8-13.2-3.8h-15.4v29.1h15.4c5.7 0 10.1-1.3 13.2-3.8 3.1-2.6 4.6-6.1 4.6-10.7z" fill="#f7cdda"/><path d="m477.2 71.5-11.9 12v15.3h-6.1v-58h6.1v35.1l34.1-35.1h7l-25.1 26.3 26.9 31.8h-7.3z"/><path d="m367.8 40.8-26.5 58.1h6.4l7-15.5h32.3l7 15.5h6.5l-26.5-58.1zm-10.9 37.5 13.9-31.2 13.9 31.2z"/></svg>