<svg enable-background="new 0 0 513 146" viewBox="0 0 513 146" xmlns="http://www.w3.org/2000/svg"><path d="m116.2 68.1c0 12.4-3 24-8.4 34.3-12.4 23.5-37.1 39.6-65.5 39.6-1.1 0-2.1 0-3.1-.1-6-.2-16-2.5-17.3-2.8s1.6-1.9 3-2.2c12-2.3 22.5-9 29.7-18.3 2.2-2.9 4.2-6 5.7-9.4 0 0 0-.1.1-.1.6-1.1 1.1-2.4 1.6-3.8.3-.8.5-1.7.7-2.6.1-.4.2-.8.2-1.2-.5.5-1.1 1-1.7 1.5-.9.7-1.8 1.2-2.7 1.6-1.5.8-3.1 1.3-4.9 1.3-.2 0-.4 0-.6 0-.4 0-.8 0-1.3-.1.1-.3.2-.6.4-.8.3-.5.6-1 .9-1.5.4-.6.8-1.1 1.3-1.6.2-.1.3-.3.5-.4.1-.1.3-.3.4-.4.9-.8 1.6-1.7 2.3-2.7 2.8-3.9 5.2-14.3 4.8-19.6-.2-3-1.3-5.6-2.8-7.9-1.4-2.1-3.1-3.9-5.2-5.4 0 0-.1-.1-.1-.1-1.1-.9-2.3-1.7-3.4-2.5-.3-.2-.7-.5-1-.7-4.8-3.2-9.3-6.5-13-11-.8-1-1.5-2.1-2.2-3.2 0 0 0 .1-.1.1-2.3 2.7-4.2 5.8-5.5 9.2-.3.7-.5 1.4-.7 2.2-.5 1.7-.9 3.5-1.1 5.4-.1 1-.2 2.1-.2 3.1 0 1.3.1 2.6.2 3.8s.4 2.3.6 3.4c.5 2.2 1.3 4.3 2.3 6.3.6 1.7 1.5 3.2 2.7 4.5.7.7 1.5 1.3 2.3 1.8 1.8 1.1 3.8 1.7 6 1.7h1.1c2.1-.2 4.1-1 5.8-2.2.2-.1.4-.2.5-.3.5 1.4.8 2.7 1 4 .1.6.2 1.1.2 1.7v1.6c0 1.1-.1 2.1-.2 3.1-.1.5-.1 1-.2 1.6-.1.7-.2 1.3-.4 2-.2.6-.4 1.2-.6 1.7-.1.2-.1.3-.2.5-.3.5-.5 1-.8 1.4-.2.3-.4.7-.6 1-4.2 7.1-10.1 13-17.2 17.3-2.8 1.7-5.9 3.1-9 4.2-.2.1-.4.1-.6.2-.1 0-.2.1-.4.1-.1 0-.2 0-.4 0-1.5 0-2.7-1.2-2.7-2.7v-.1c0-.5.2-1 .5-1.5.3-.3.6-.5.9-.8 4.5-4.1 7.7-9.6 9.1-15.8.3-.9.5-1.8.6-2.7.2-1.3.2-2.6.1-3.9v.1c-.2-1.5-.5-2.9-1.1-4.3-.2-.5-.4-.9-.7-1.4-2.6-4-2.2-3.6-6.3-7.1-3-2.5-6.5-5.2-9-8.5-.1-.2-.2-.3-.3-.5-1.2-2.2-2.3-4.6-3.2-7-.5-1.3-.9-2.7-1.3-4.1-1-3.7-1.6-7.5-1.6-11.5.6-5.5 1.6-10.7 3.3-15.6 1-2.8 2.2-5.6 3.6-8.2 4-7.4 9.7-13.7 16.5-18.6 2.3-1.6 4.7-3.1 7.2-4.4 3.9-2 8.1-3.5 12.5-4.6 1.1-.2 2.2-.4 3.4-.6 3-.5 6.8-.8 9.7-.9 2.7 0 5.3.2 8 .6 8 1.2 15.4 4.1 22 8.3 2.1 1.4 4.1 2.8 6 4.5.8.7 1.5 1.5 2.3 2.3.1.1.1.1.2.2 8 8.3 12.6 16.8 15 25.1.7 2.5 1.3 5 1.7 7.4.6 5 .7 16.1.7 17z" fill="#f277a8"/><text transform="translate(57.6727 98.7793)"><tspan fill="#333" font-family="'Montserrat-Regular'" font-size="83.0315" letter-spacing="-5" x="0" y="0">P</tspan><tspan fill="#333" font-family="'Montserrat-Regular'" font-size="83.0315" letter-spacing="-4" x="53.8" y="0">E</tspan><tspan fill="#333" font-family="'Montserrat-Regular'" font-size="83.0315" letter-spacing="-2" x="104.4" y="0">L</tspan><tspan fill="#333" font-family="'Montserrat-Regular'" font-size="83.0315" letter-spacing="-7" x="150.8" y="0">U</tspan><tspan fill="#333" font-family="'Montserrat-Regular'" font-size="83.0315" letter-spacing="-4" x="209.1" y="0">MA</tspan><tspan fill="#333" font-family="'Montserrat-Regular'" font-size="83.0315" letter-spacing="-6" x="339.6" y="0">R</tspan><tspan fill="#333" font-family="'Montserrat-Regular'" font-size="83.0315" x="393" y="0">K</tspan></text></svg>