<svg viewBox="0 0 4125.81 513.28" xmlns="http://www.w3.org/2000/svg"><path d="m2532.1 37.36v513h-14.66v-481.48l-233.79 408.94h-8.79l-233.79-407.48v480h-14.65v-513h12.45l240.39 420.66 240.38-420.64z" transform="translate(-26.42 -37.36)"/><path d="m2699.81 344.8 311 3-156.42-338.87z" fill="#f277a8"/><path d="m3038.5 395.74h-313.66l-71.84 154.63h-16.86l238.18-513h14.68l238.18 513h-16.85zm-6.59-13.93-150.24-324.66-150.24 324.66z" transform="translate(-26.42 -37.36)"/><path d="m3595.48 550.37-130.48-181.02q-25.65 5.14-60.09 5.13h-159v175.89h-14.66v-513h173.69q94.55 0 148 44.34t53.5 124.22q0 61.56-33 103t-93.08 56.8l133.44 184.64zm-189.09-189.81q89.42 0 137.42-40.31t48-114.33q0-74-48-114.33t-137.42-40.3h-160.49v309.27z" transform="translate(-26.42 -37.36)"/><path d="m4124.84 512.21-247.71-269.25 242.32-242.33h5.39z" fill="#e89cbe"/><path d="m4108.68.63-366.18 376.95v-376.95z" fill="#f277a8"/><path d="m3744.66 388.46v123.75h360.73l-229.23-259.03z" fill="#f7cdda"/><path d="m3887.5 242.6 235.8-242.6h-20.41l-358.23 368.05v-368.05h-15.11v512.21h7.57 7.54v-123.75l131.5-135.28 229.23 259.03h10.23 10.19z"/><path d="m231.92 44h-205.5v499.5h92.76v-144.13h112.74c131.29 0 212.63-67.79 212.63-177.66 0-110.6-81.34-177.71-212.63-177.71zm-4.28 276.85h-108.46v-198.33h108.46c81.34 0 123.44 36.39 123.44 99.19s-42.08 99.18-123.44 99.18z" transform="translate(-26.42 -37.36)"/><path d="m603.63 290.66h241.17v-76.35h-241.17v-129.86h271.85v-77.77h-364.61v499.46h374.6v-77.77h-281.84z"/><path d="m1081.67 6.68h-92.76v499.46h353.91v-78.48h-261.15z"/><path d="m1777.36 322.31c0 102.75-45.66 147-126.29 147s-127-44.24-127-147v-278.31h-92.75v281.88c0 145.56 82 224.76 219 224.76 136.28 0 218.33-79.2 218.33-224.76v-281.88h-91.33z" transform="translate(-26.42 -37.36)"/></svg>