<?xml version="1.0" encoding="utf-8"?>
<!-- Generator: Adobe Illustrator 24.1.0, SVG Export Plug-In . SVG Version: 6.00 Build 0)  -->
<svg version="1.1" xmlns="http://www.w3.org/2000/svg" xmlns:xlink="http://www.w3.org/1999/xlink" x="0px" y="0px"
	 viewBox="0 0 513 146" style="enable-background:new 0 0 513 146;" xml:space="preserve">
<style type="text/css">
	.st0{display:none;}
	.st1{display:inline;}
	.st2{fill:#F277A8;}
	.st3{fill:#333333;}
	.st4{font-family:'Montserrat-Regular';}
	.st5{font-size:83.0315px;}
	.st6{letter-spacing:-5;}
	.st7{letter-spacing:-4;}
	.st8{letter-spacing:-2;}
	.st9{letter-spacing:-7;}
	.st10{letter-spacing:-6;}
	.st11{fill:#F7CDDA;}
	.st12{fill:none;}
</style>
<g id="Layer_1" class="st0">
	<g class="st1">
		<g>
			<path class="st2" d="M116.2,68.1c0,12.4-3,24-8.4,34.3C95.4,125.9,70.7,142,42.3,142c-1.1,0-2.1,0-3.1-0.1
				c-6-0.2-16-2.5-17.3-2.8s1.6-1.9,3-2.2c12-2.3,22.5-9,29.7-18.3c2.2-2.9,4.2-6,5.7-9.4c0,0,0-0.1,0.1-0.1
				c0.6-1.1,1.1-2.4,1.6-3.8c0.3-0.8,0.5-1.7,0.7-2.6c0.1-0.4,0.2-0.8,0.2-1.2c-0.5,0.5-1.1,1-1.7,1.5c-0.9,0.7-1.8,1.2-2.7,1.6
				c-1.5,0.8-3.1,1.3-4.9,1.3c-0.2,0-0.4,0-0.6,0c-0.4,0-0.8,0-1.3-0.1c0.1-0.3,0.2-0.6,0.4-0.8c0.3-0.5,0.6-1,0.9-1.5h0
				c0.4-0.6,0.8-1.1,1.3-1.6c0,0,0,0,0,0c0.2-0.1,0.3-0.3,0.5-0.4c0.1-0.1,0.3-0.3,0.4-0.4c0.9-0.8,1.6-1.7,2.3-2.7
				c2.8-3.9,5.2-14.3,4.8-19.6c-0.2-3-1.3-5.6-2.8-7.9c-1.4-2.1-3.1-3.9-5.2-5.4c0,0-0.1-0.1-0.1-0.1c-1.1-0.9-2.3-1.7-3.4-2.5
				c-0.3-0.2-0.7-0.5-1-0.7C45,59,40.5,55.7,36.8,51.2c-0.8-1-1.5-2.1-2.2-3.2c0,0,0,0.1-0.1,0.1c-2.3,2.7-4.2,5.8-5.5,9.2
				c-0.3,0.7-0.5,1.4-0.7,2.2c-0.5,1.7-0.9,3.5-1.1,5.4c-0.1,1-0.2,2.1-0.2,3.1c0,1.3,0.1,2.6,0.2,3.8c0.1,1.2,0.4,2.3,0.6,3.4
				c0.5,2.2,1.3,4.3,2.3,6.3c0.6,1.7,1.5,3.2,2.7,4.5c0.7,0.7,1.5,1.3,2.3,1.8c1.8,1.1,3.8,1.7,6,1.7c0.4,0,0.7,0,1.1,0
				c2.1-0.2,4.1-1,5.8-2.2c0.2-0.1,0.4-0.2,0.5-0.3c0.5,1.4,0.8,2.7,1,4c0.1,0.6,0.2,1.1,0.2,1.7c0,0.5,0,1,0,1.6
				c0,1.1-0.1,2.1-0.2,3.1c-0.1,0.5-0.1,1-0.2,1.6c-0.1,0.7-0.2,1.3-0.4,2c-0.2,0.6-0.4,1.2-0.6,1.7c-0.1,0.2-0.1,0.3-0.2,0.5
				c0,0,0,0,0,0c-0.3,0.5-0.5,1-0.8,1.4c-0.2,0.3-0.4,0.7-0.6,1c-4.2,7.1-10.1,13-17.2,17.3c-2.8,1.7-5.9,3.1-9,4.2
				c-0.2,0.1-0.4,0.1-0.6,0.2c-0.1,0-0.2,0.1-0.4,0.1c-0.1,0-0.2,0-0.4,0c-1.5,0-2.7-1.2-2.7-2.7c0,0,0-0.1,0-0.1
				c0-0.5,0.2-1,0.5-1.5c0.3-0.3,0.6-0.5,0.9-0.8c4.5-4.1,7.7-9.6,9.1-15.8c0.3-0.9,0.5-1.8,0.6-2.7c0.2-1.3,0.2-2.6,0.1-3.9
				c0,0,0,0,0,0V100c0,0,0,0,0,0c-0.2-1.5-0.5-2.9-1.1-4.3c-0.2-0.5-0.4-0.9-0.7-1.4c-2.6-4-2.2-3.6-6.3-7.1c-3-2.5-6.5-5.2-9-8.5
				c-0.1-0.2-0.2-0.3-0.3-0.5c-1.2-2.2-2.3-4.6-3.2-7c-0.5-1.3-0.9-2.7-1.3-4.1c-1-3.7-1.6-7.5-1.6-11.5C4.7,50.1,5.7,44.9,7.4,40
				c1-2.8,2.2-5.6,3.6-8.2c4-7.4,9.7-13.7,16.5-18.6c2.3-1.6,4.7-3.1,7.2-4.4c3.9-2,8.1-3.5,12.5-4.6c1.1-0.2,2.2-0.4,3.4-0.6
				c3-0.5,6.8-0.8,9.7-0.9c2.7,0,5.3,0.2,8,0.6c8,1.2,15.4,4.1,22,8.3c2.1,1.4,4.1,2.8,6,4.5c0.8,0.7,1.5,1.5,2.3,2.3
				c0.1,0.1,0.1,0.1,0.2,0.2c8,8.3,12.6,16.8,15,25.1c0.7,2.5,1.3,5,1.7,7.4C116.1,56.1,116.2,67.2,116.2,68.1z"/>
		</g>
		<g>
			<text transform="matrix(1 0 0 1 57.6727 98.7793)"><tspan x="0" y="0" class="st3 st4 st5 st6">P</tspan><tspan x="53.8" y="0" class="st3 st4 st5 st7">E</tspan><tspan x="104.4" y="0" class="st3 st4 st5 st8">L</tspan><tspan x="150.8" y="0" class="st3 st4 st5 st9">U</tspan><tspan x="209.1" y="0" class="st3 st4 st5 st7">MA</tspan><tspan x="339.6" y="0" class="st3 st4 st5 st10">R</tspan><tspan x="393" y="0" class="st3 st4 st5">K</tspan></text>
		</g>
	</g>
</g>
<g id="Layer_2">
	<g>
		<g>
			<g>
				<path class="st11" d="M101.4,49.9c-3-2.5-7.4-3.8-13.2-3.8H72.8v29h15.4c5.7,0,10.1-1.3,13.2-3.8c3-2.5,4.6-6.1,4.6-10.7
					C106,56,104.5,52.4,101.4,49.9z"/>
			</g>
			<g>
				<path class="st2" d="M114.8,51.3c-0.4-2.4-0.9-4.9-1.7-7.4c-2.5-8.3-7-16.8-15-25.1c-0.1-0.1-0.1-0.1-0.2-0.2
					c-0.8-0.8-1.5-1.6-2.3-2.3c-1.9-1.6-3.9-3.1-5.9-4.5c-6.5-4.2-13.9-7.1-21.9-8.3C65.1,3.2,62.5,3,59.8,3
					c-2.9,0.1-6.6,0.4-9.7,0.9c-1.1,0.2-2.3,0.4-3.4,0.6c-4.4,1-8.5,2.6-12.4,4.6c-2.5,1.3-4.9,2.7-7.2,4.4
					C20.3,18.3,14.7,24.6,10.7,32C9.3,34.6,8,37.3,7,40.2c-1.7,4.9-2.8,10.1-3,15.5c0.1,4,0.7,7.8,1.6,11.5c0.4,1.4,0.8,2.8,1.3,4.1
					c0.9,2.4,2,4.8,3.2,7c0.1,0.2,0.2,0.3,0.3,0.5c2.4,3.4,6,6.1,8.9,8.5c4.2,3.5,3.7,3.1,6.3,7.1c0.3,0.4,0.5,0.9,0.7,1.4
					c0.6,1.4,1,2.8,1.1,4.3c0,0,0,0,0,0v0.1c0,0,0,0,0,0c0.1,1.3,0.1,2.5-0.1,3.9c-0.1,0.9-0.3,1.8-0.6,2.7
					c-1.4,6.2-4.6,11.6-9.1,15.7c-0.3,0.3-0.6,0.6-0.9,0.8c-0.3,0.4-0.5,0.9-0.5,1.5c0,0,0,0.1,0,0.1c0,1.5,1.2,2.7,2.7,2.7
					c0.1,0,0.2,0,0.4,0c0.1,0,0.2-0.1,0.4-0.1c0.2-0.1,0.4-0.1,0.6-0.2c3.2-1.1,6.2-2.5,9-4.2c7.1-4.2,13-10.2,17.2-17.2
					c0.2-0.3,0.4-0.6,0.6-1c0.3-0.5,0.5-1,0.8-1.4c0,0,0,0,0,0c0.1-0.2,0.1-0.3,0.2-0.5c0.2-0.6,0.4-1.2,0.6-1.7
					c0.1-0.7,0.3-1.3,0.4-2c0.1-0.5,0.1-1,0.2-1.6c0.1-1,0.2-2.1,0.2-3.1c0-0.5,0-1.1,0-1.6c-0.1-0.6-0.1-1.1-0.2-1.7
					c-0.2-1.3-0.6-2.6-1-4c-0.2,0.1-0.4,0.2-0.5,0.3c-1.6,1.2-3.6,2-5.7,2.2c-0.4,0-0.7,0-1.1,0c-2.2,0-4.2-0.6-6-1.7
					c-0.8-0.5-1.6-1.1-2.3-1.8c-1.2-1.2-2.2-2.8-2.7-4.5c-1-2-1.8-4.1-2.3-6.3c-0.3-1.1-0.5-2.2-0.6-3.4c-0.2-1.2-0.2-2.5-0.2-3.8
					c0-1.1,0.1-2.1,0.2-3.1c0.2-1.9,0.5-3.7,1.1-5.4c0.2-0.7,0.5-1.5,0.7-2.2c1.3-3.4,3.2-6.5,5.5-9.2c0,0,0-0.1,0.1-0.1
					c0.7,1.1,1.4,2.1,2.2,3.1c3.7,4.5,8.2,7.8,12.8,11.1c0.3,0.2,0.7,0.5,1,0.7c1.1,0.8,2.3,1.7,3.4,2.5c0,0,0.1,0.1,0.1,0.1
					c2.1,1.4,3.9,3.2,5.2,5.4c1.6,2.2,2.7,4.8,2.8,7.9c0.3,5.3-2,15.7-4.8,19.6c-0.7,1-1.5,1.9-2.3,2.7c-0.1,0.1-0.3,0.3-0.4,0.4
					c-0.2,0.2-0.3,0.3-0.5,0.4c0,0,0,0,0,0c-0.5,0.5-0.9,1-1.3,1.6h0c-0.3,0.5-0.6,1-0.9,1.5c-0.1,0.3-0.3,0.5-0.4,0.8
					c0.4,0,0.8,0.1,1.3,0.1c0.2,0,0.4,0,0.6,0c1.8-0.1,3.4-0.6,4.9-1.3c0.9-0.4,1.8-0.9,2.7-1.6c0.6-0.4,1.1-0.9,1.6-1.5
					c-0.1,0.4-0.2,0.8-0.2,1.2c-0.2,0.9-0.4,1.8-0.7,2.6c-0.5,1.4-1,2.7-1.6,3.8c0,0,0,0.1-0.1,0.1c-1.6,3.3-3.5,6.5-5.7,9.4
					c-7.2,9.3-17.6,16-29.6,18.2c-1.4,0.3-4.2,1.9-3,2.2c1.2,0.3,11.3,2.5,17.2,2.8c1,0,2.1,0.1,3.1,0.1c28.4,0,53.1-16.1,65.5-39.6
					c5.4-10.2,8.4-21.9,8.4-34.2C115.7,67.3,115.6,56.2,114.8,51.3z M105.8,75.2c-4.2,3.5-10,5.3-17.4,5.3H72.8v18.3h-6.1V40.8h21.7
					c7.4,0,13.2,1.8,17.4,5.3c4.2,3.5,6.3,8.4,6.3,14.6C112.1,66.9,110,71.7,105.8,75.2z"/>
			</g>
			<path d="M105.8,46.1c-4.2-3.5-10-5.3-17.4-5.3H66.7v58.1h6.1V80.5h15.6c7.4,0,13.2-1.8,17.4-5.3c4.2-3.5,6.3-8.4,6.3-14.6
				C112.1,54.5,110,49.6,105.8,46.1z M101.4,71.3c-3,2.5-7.4,3.8-13.2,3.8H72.8v-29h15.4c5.7,0,10.1,1.3,13.2,3.8
				c3,2.5,4.6,6.1,4.6,10.8C106,65.3,104.5,68.8,101.4,71.3z"/>
		</g>
		<path d="M161.5,93.5v5.3h-41.1V40.8h39.8v5.3h-33.7v20.7h30V72h-30v21.6H161.5z"/>
		<path d="M170.9,40.8h6.1v52.7h32.5v5.3h-38.6V40.8z"/>
		<path d="M223.1,92.9c-4.2-4.3-6.3-10.6-6.3-18.8V40.8h6.1v33c0,6.7,1.5,11.8,4.6,15.1c3,3.3,7.4,5,13.2,5c5.8,0,10.2-1.7,13.3-5
			c3-3.3,4.6-8.3,4.6-15.1v-33h6V74c0,8.2-2.1,14.5-6.3,18.8c-4.2,4.3-10,6.5-17.5,6.5C233.1,99.3,227.3,97.2,223.1,92.9z"/>
		<path d="M335.8,40.8v58.1h-5.9V52.4l-22.8,39.1h-2.9l-22.8-38.8v46.2h-5.9V40.8h5.1l25.2,43l25-43H335.8z"/>
		<g>
			<path class="st12" d="M447.9,72.2c2.3-3.1,3.4-7,3.4-11.5c0-6.2-2.1-11.1-6.3-14.6c-4.2-3.5-10-5.3-17.4-5.3h-21.7v58.1h6.1V80.4
				h15.6c1.6,0,3.2-0.1,4.6-0.2l13.3,18.7h6.7L438,78.9C442.3,77.5,445.6,75.3,447.9,72.2z M427.4,75.2H412V46.1h15.4
				c5.7,0,10.1,1.3,13.2,3.8c3,2.5,4.6,6.1,4.6,10.8c0,4.6-1.5,8.2-4.6,10.7C437.6,73.9,433.2,75.2,427.4,75.2z"/>
			<path d="M445.5,98.8l-13.3-18.7c-1.5,0.2-3,0.2-4.6,0.2H412v18.4h-6.1V40.8h21.7c7.4,0,13.2,1.8,17.4,5.3
				c4.2,3.5,6.3,8.4,6.3,14.6c0,4.5-1.1,8.4-3.4,11.5c-2.3,3.1-5.6,5.4-9.8,6.8l14.2,19.9H445.5z"/>
			<path class="st11" d="M445.2,60.7c0-4.7-1.5-8.3-4.6-10.8c-3-2.5-7.4-3.8-13.2-3.8H412v29.1h15.4c5.7,0,10.1-1.3,13.2-3.8
				C443.7,68.8,445.2,65.3,445.2,60.7z"/>
		</g>
		<path d="M477.2,71.5l-11.9,12v15.3h-6.1V40.8h6.1v35.1l34.1-35.1h7l-25.1,26.3l26.9,31.8h-7.3L477.2,71.5z"/>
		<g>
			<path d="M367.8,40.8l-26.5,58.1h6.4l7-15.5H387l7,15.5h6.5l-26.5-58.1H367.8z M356.9,78.3l13.9-31.2l13.9,31.2H356.9z"/>
		</g>
	</g>
</g>
</svg>
