<?xml version="1.0" encoding="utf-8"?>
<!-- Generator: Adobe Illustrator 24.1.0, SVG Export Plug-In . SVG Version: 6.00 Build 0)  -->
<svg version="1.1" id="Layer_1" xmlns="http://www.w3.org/2000/svg" xmlns:xlink="http://www.w3.org/1999/xlink" x="0px" y="0px"
	 viewBox="0 0 513 146" style="enable-background:new 0 0 513 146;" xml:space="preserve">
<style type="text/css">
	.st0{fill:#F277A8;}
	.st1{fill:#333333;}
	.st2{font-family:'Montserrat-Regular';}
	.st3{font-size:83.0315px;}
	.st4{letter-spacing:-5;}
	.st5{letter-spacing:-4;}
	.st6{letter-spacing:-2;}
	.st7{letter-spacing:-7;}
	.st8{letter-spacing:-6;}
</style>
<g>
	<g>
		<path class="st0" d="M116.2,68.1c0,12.4-3,24-8.4,34.3C95.4,125.9,70.7,142,42.3,142c-1.1,0-2.1,0-3.1-0.1c-6-0.2-16-2.5-17.3-2.8
			s1.6-1.9,3-2.2c12-2.3,22.5-9,29.7-18.3c2.2-2.9,4.2-6,5.7-9.4c0,0,0-0.1,0.1-0.1c0.6-1.1,1.1-2.4,1.6-3.8
			c0.3-0.8,0.5-1.7,0.7-2.6c0.1-0.4,0.2-0.8,0.2-1.2c-0.5,0.5-1.1,1-1.7,1.5c-0.9,0.7-1.8,1.2-2.7,1.6c-1.5,0.8-3.1,1.3-4.9,1.3
			c-0.2,0-0.4,0-0.6,0c-0.4,0-0.8,0-1.3-0.1c0.1-0.3,0.2-0.6,0.4-0.8c0.3-0.5,0.6-1,0.9-1.5h0c0.4-0.6,0.8-1.1,1.3-1.6c0,0,0,0,0,0
			c0.2-0.1,0.3-0.3,0.5-0.4c0.1-0.1,0.3-0.3,0.4-0.4c0.9-0.8,1.6-1.7,2.3-2.7c2.8-3.9,5.2-14.3,4.8-19.6c-0.2-3-1.3-5.6-2.8-7.9
			c-1.4-2.1-3.1-3.9-5.2-5.4c0,0-0.1-0.1-0.1-0.1c-1.1-0.9-2.3-1.7-3.4-2.5c-0.3-0.2-0.7-0.5-1-0.7C45,59,40.5,55.7,36.8,51.2
			c-0.8-1-1.5-2.1-2.2-3.2c0,0,0,0.1-0.1,0.1c-2.3,2.7-4.2,5.8-5.5,9.2c-0.3,0.7-0.5,1.4-0.7,2.2c-0.5,1.7-0.9,3.5-1.1,5.4
			c-0.1,1-0.2,2.1-0.2,3.1c0,1.3,0.1,2.6,0.2,3.8c0.1,1.2,0.4,2.3,0.6,3.4c0.5,2.2,1.3,4.3,2.3,6.3c0.6,1.7,1.5,3.2,2.7,4.5
			c0.7,0.7,1.5,1.3,2.3,1.8c1.8,1.1,3.8,1.7,6,1.7c0.4,0,0.7,0,1.1,0c2.1-0.2,4.1-1,5.8-2.2c0.2-0.1,0.4-0.2,0.5-0.3
			c0.5,1.4,0.8,2.7,1,4c0.1,0.6,0.2,1.1,0.2,1.7c0,0.5,0,1,0,1.6c0,1.1-0.1,2.1-0.2,3.1c-0.1,0.5-0.1,1-0.2,1.6
			c-0.1,0.7-0.2,1.3-0.4,2c-0.2,0.6-0.4,1.2-0.6,1.7c-0.1,0.2-0.1,0.3-0.2,0.5c0,0,0,0,0,0c-0.3,0.5-0.5,1-0.8,1.4
			c-0.2,0.3-0.4,0.7-0.6,1c-4.2,7.1-10.1,13-17.2,17.3c-2.8,1.7-5.9,3.1-9,4.2c-0.2,0.1-0.4,0.1-0.6,0.2c-0.1,0-0.2,0.1-0.4,0.1
			c-0.1,0-0.2,0-0.4,0c-1.5,0-2.7-1.2-2.7-2.7c0,0,0-0.1,0-0.1c0-0.5,0.2-1,0.5-1.5c0.3-0.3,0.6-0.5,0.9-0.8
			c4.5-4.1,7.7-9.6,9.1-15.8c0.3-0.9,0.5-1.8,0.6-2.7c0.2-1.3,0.2-2.6,0.1-3.9c0,0,0,0,0,0V100c0,0,0,0,0,0
			c-0.2-1.5-0.5-2.9-1.1-4.3c-0.2-0.5-0.4-0.9-0.7-1.4c-2.6-4-2.2-3.6-6.3-7.1c-3-2.5-6.5-5.2-9-8.5c-0.1-0.2-0.2-0.3-0.3-0.5
			c-1.2-2.2-2.3-4.6-3.2-7c-0.5-1.3-0.9-2.7-1.3-4.1c-1-3.7-1.6-7.5-1.6-11.5C4.7,50.1,5.7,44.9,7.4,40c1-2.8,2.2-5.6,3.6-8.2
			c4-7.4,9.7-13.7,16.5-18.6c2.3-1.6,4.7-3.1,7.2-4.4c3.9-2,8.1-3.5,12.5-4.6c1.1-0.2,2.2-0.4,3.4-0.6c3-0.5,6.8-0.8,9.7-0.9
			c2.7,0,5.3,0.2,8,0.6c8,1.2,15.4,4.1,22,8.3c2.1,1.4,4.1,2.8,6,4.5c0.8,0.7,1.5,1.5,2.3,2.3c0.1,0.1,0.1,0.1,0.2,0.2
			c8,8.3,12.6,16.8,15,25.1c0.7,2.5,1.3,5,1.7,7.4C116.1,56.1,116.2,67.2,116.2,68.1z"/>
	</g>
	<g>
		<text transform="matrix(1 0 0 1 57.6727 98.7793)"><tspan x="0" y="0" class="st1 st2 st3 st4">P</tspan><tspan x="53.8" y="0" class="st1 st2 st3 st5">E</tspan><tspan x="104.4" y="0" class="st1 st2 st3 st6">L</tspan><tspan x="150.8" y="0" class="st1 st2 st3 st7">U</tspan><tspan x="209.1" y="0" class="st1 st2 st3 st5">MA</tspan><tspan x="339.6" y="0" class="st1 st2 st3 st8">R</tspan><tspan x="393" y="0" class="st1 st2 st3">K</tspan></text>
	</g>
</g>
</svg>
